<svg t="1717926320167" class="icon" viewBox="0 0 1025 1024" version="1.1" xmlns="http://www.w3.org/2000/svg" p-id="4722" width="64" height="64"><path d="M813.55323 0h-40.520807v97.249936h-100.90988V0h-40.259382v97.249936h-100.90988V0h-40.520807v97.249936H389.522594V0h-40.259382v97.249936H248.353332V0H209.139648v97.249936H94.374266V209.139648H0v41.043656h94.374266v100.38703H0V392.136839h94.374266v100.387031H0v40.259382h94.374266v100.387031H0v40.259383h94.374266v100.38703H0v40.259383h94.374266v112.935409h832.637222V97.249936h-113.458258z m72.937452 885.444983h-130.71228v-235.282103a37.645137 37.645137 0 0 0 16.731172-30.848098 37.122287 37.122287 0 1 0-57.251979 30.848098v235.282103H282.0771v-248.87618l182.997192-179.337248a41.566505 41.566505 0 0 0 9.934133 1.568547 36.860863 36.860863 0 1 0-37.122288-36.860863 28.756702 28.756702 0 0 0 0 4.705642l-196.068419 193.19275v265.607352H134.895073V137.247894h132.019402v145.874904a37.122287 37.122287 0 1 0 40.520807 0V137.247894h407.822313v252.797549l-195.54557 225.870819a33.200919 33.200919 0 0 0-7.319888 0 36.860863 36.860863 0 1 0 36.599438 36.07659 40.259382 40.259382 0 0 0 0-7.842737l207.309676-239.203472V137.247894h130.71228z" p-id="4723" fill="#1296db"></path><path d="M207.832525 926.488639H248.353332v97.511361H207.832525zM349.263212 926.488639h40.520806v97.511361h-40.520806zM490.432474 926.488639h40.520807v97.511361h-40.520807zM631.863161 926.488639h40.520806v97.511361h-40.520806zM773.032423 926.488639h40.520807v97.511361h-40.520807zM927.011488 772.509574h98.03421v40.259382h-98.03421zM927.011488 631.863161h98.03421v40.259382h-98.03421zM927.011488 491.216748h98.03421v40.259382h-98.03421zM927.011488 350.570334h98.03421v40.259383h-98.03421zM927.011488 209.923921h98.03421v40.259383h-98.03421z" p-id="4724" fill="#1296db"></path></svg>